<svg xmlns="http://www.w3.org/2000/svg" version="1.1" xmlns:xlink="http://www.w3.org/1999/xlink" width="50" height="50"><svg version="1.1" id="SvgjsSvg1001" xmlns="http://www.w3.org/2000/svg" xmlns:xlink="http://www.w3.org/1999/xlink" x="0px" y="0px" viewBox="0 0 50 50" style="enable-background:new 0 0 50 50;" xml:space="preserve">
<style type="text/css">
	.st0{fill:#FFFFFF;}
	.st1{fill:#BEC3B8;}
	.st2{fill:#717994;}
	.st3{fill:#BCC7CE;}
	.st4{fill:#7AEB5D;}
	.st5{fill:#64EA31;}
	.st6{fill:#A3ED88;}
	.st7{fill:#882E8D;}
	.st8{fill:#733374;}
	.st9{fill:#CABEC9;}
	.st10{fill:#C8A1C7;}
	.st11{fill:#93479B;}
	.st12{fill:#D7B7D7;}
	.st13{fill:#AF65B6;}
	.st14{fill:#DBCDD3;}
	.st15{fill:#B283B0;}
	.st16{fill:#A88B73;}
	.st17{fill:#B0A69E;}
	.st18{fill:#7E5A44;}
	.st19{fill:#586451;}
	.st20{fill:#465642;}
	.st21{fill:#C3C3C3;}
	.st22{fill:#91725D;}
	.st23{fill:#7B5139;}
	.st24{fill:#5E4134;}
</style>
<g>
	<path class="st0" d="M12.43,8.14c-0.19,1.58-0.67,2.82-0.4,3.93c0.27,1.12,0.08,28.31,0,30.2c-0.08,1.8,0.5,3.44,0.5,3.83
		c0,0.39,11.85,2.29,11.85,2.29l12.24-1.95c0,0,2.47-1.62,2.45-2.32c-0.02-0.7-0.15-33.51,0.25-34.72S12.43,8.14,12.43,8.14z"></path>
	<g>
		<g>
			<g>
				<g>
					<g>
						<path class="st1" d="M32.15,48.67c0.11,0.02,0.19-0.16,0.4-0.14"></path>
					</g>
				</g>
			</g>
		</g>
		<g>
			<g>
				<g>
					<path class="st2" d="M11.89,11.65c0,0.06,0.14,0.46,0.14,0.76"></path>
					<path class="st2" d="M12.03,10.51c-0.01,0.04-0.13,0.67-0.14,0.76"></path>
					<path class="st2" d="M12.17,15.8c0.11,0.42-0.17,0.91-0.14,1.39"></path>
					<path class="st2" d="M12.17,13.66c-0.01,0.47-0.01,0.66-0.14,1.13c-0.01,0.02-0.07,0.06-0.14,0.38c0,0.01-0.22-0.01-0.14,0.25"></path>
					<path class="st3" d="M11.89,11.27c0,0.02,0,0.3,0,0.38"></path>
					<path class="st3" d="M11.75,15.42c0.1,0.1,0.4,0.31,0.42,0.38"></path>
				</g>
			</g>
			<g>
				<path class="st4" d="M12.03,33.31c0.01,0.12-0.06,0.26,0.14,0.25c-0.04,0.27,0.01,0.6,0,0.88"></path>
				<path class="st4" d="M12.03,31.54v0.38c0,0.33,0,0.67,0,1.01c0,0.04,0,0.08,0,0.13"></path>
				<path class="st5" d="M10.34,29.59"></path>
				<g>
					<path class="st5" d="M12.03,29.28c0.01,0.15,0.12,0.45,0.14,0.76"></path>
				</g>
				<path class="st6" d="M12.03,33.05c0,0.08-0.01,0.17,0,0.25"></path>
			</g>
		</g>
		<g>
			<path class="st7" d="M39.32,21.09c0.06,0.2-0.17,0.27-0.14,0.5c-4.55,2.08-10.67,3.7-15.82,3.27c-0.44-0.04-1.27-0.09-1.48-0.5
				c5.98,0.57,11.21-0.82,16.67-2.77c0.25-0.22-0.05-0.26-0.28-0.25c-0.93,0.03-4.48,1.59-5.77,1.89c-2.5,0.59-5.23,0.87-7.81,0.88
				l0.14-0.25c0.3,0.01,2.67,0.12,2.67-0.19c-0.86-0.37-1.9-0.13-2.81-0.19c-0.23-0.36-0.25-0.32,0.21-0.38
				c2.49-0.3,5.09-0.03,7.81-0.5c2.22-0.39,4.32-1.11,6.26-2.14C39.18,20.44,39.28,20.93,39.32,21.09z"></path>
			<path class="st8" d="M39.32,11.39c-0.01,0.04,0.01,0.09,0,0.13c-0.04,0.19-0.14,0.49-0.14,0.63c0,0.12,0.15,0.14,0.14,0.25
				c-0.19,0.02-0.13,0.12-0.14,0.13c-0.25,0.03-3.63,0.53-3.16,0.76l2.95-0.5c0.22,0.19-0.62,0.48-0.7,0.5
				c-1.18,0.4-2.89,0.58-4.15,0.76c-2.89,0.4-6.52,0.73-9.42,0.63c-0.77-0.03-1.55-0.05-2.32-0.13l0.35-0.38
				C28.48,14.52,34.12,13.58,39.32,11.39z"></path>
			<path class="st9" d="M39.32,11.39c-5.2,2.19-10.84,3.13-16.6,2.77c-1.11-0.07-2.21-0.19-3.31-0.38c0.54,0.53,1.7,0.32,2.32,0.69
				c0.17,0.55-4.61-1.06-4.99-1.32c1.69,0.34,3.38,0.39,5.13,0.5c4.1,0.26,8.04,0.39,11.89-0.88c-0.92,0.01-1.83,0.26-2.74,0.38
				v-0.38c2.22-0.21,5.14-0.56,7.1-1.39c-0.56,0.04-2.16,0.78-2.39,0.25l3.59-0.88h0.14C39.45,10.79,39.36,11.23,39.32,11.39z"></path>
			<path class="st7" d="M39.32,10.76l-3.59,0.88c0.23,0.52,1.83-0.21,2.39-0.25c-1.96,0.83-4.88,1.17-7.1,1.39
				c-2.37,0.23-4.97,0.4-7.38,0.25c-0.64-0.04-2.76-0.17-2.88-0.76c6.71,0.78,11.73,0.23,18.01-1.89
				C39.18,10.24,39.3,9.85,39.32,10.76z"></path>
			<path class="st7" d="M39.32,42.62c-0.97,3.33-12.56,4.07-15.61,3.9v-0.38c4.48,0.28,9.33-0.57,13.36-2.2
				c-4.13,1.14-8.35,2.19-12.8,1.95l-0.07-0.38c2.76,0.21,5.61-0.24,8.3-0.76C34.77,44.33,37.36,43.69,39.32,42.62z"></path>
			<path class="st10" d="M24.27,45.9c4.45,0.24,8.67-0.81,12.8-1.95c-4.03,1.63-8.88,2.49-13.36,2.2c-1.84-0.12-4.06-0.54-5.84-1.01
				c-1.35-0.36-2.8-0.85-4.01-1.51c0.73-0.18,4.69,1.38,5.84,1.64C21.19,45.6,22.73,45.81,24.27,45.9z"></path>
			<path class="st10" d="M21.88,24.37c-0.76-0.07-2.58-0.2-2.88-0.76c1.87,0.45,3.8,0.51,5.7,0.5c2.58-0.01,5.31-0.29,7.81-0.88
				c1.29-0.3,4.83-1.86,5.77-1.89c0.23-0.01,0.53,0.03,0.28,0.25C33.08,23.54,27.86,24.93,21.88,24.37z"></path>
			<path class="st11" d="M13.86,43.63c1.21,0.66,2.66,1.15,4.01,1.51c1.77,0.47,4,0.89,5.84,1.01v0.38c-3.07-0.17-6.25-0.6-9-1.89
				c-0.31-0.14-0.7-0.33-0.98-0.5c0.11-0.2-0.29-0.41-0.28-0.44C13.49,43.57,13.74,43.66,13.86,43.63z"></path>
			<path class="st7" d="M39.32,30.91c0,0.08,0.01,0.17,0,0.25c-1.74,0.8-4.04,1.34-5.98,1.64c-0.53,0.08-2.85,0.58-2.88-0.13
				c0.29-0.03,0.5-0.1,0.7-0.13C34.18,32.15,36.54,31.33,39.32,30.91z"></path>
			<path class="st7" d="M39.32,30.28c-2.47,1-5.55,1.67-8.3,2.01c-0.18,0.02-0.38-0.02-0.56,0c-0.15-0.44,0.6-0.45,0.91-0.5
				c2.95-0.5,5.01-1.12,7.81-1.76C39.17,30.14,39.3,30.16,39.32,30.28z"></path>
			<path class="st12" d="M34.12,14.04l0.14,0.25c-3.29,0.12-6.35,0.58-9.85,0.63l0.28-0.25C27.6,14.77,31.22,14.44,34.12,14.04z"></path>
			<path class="st10" d="M35.24,21.22c-2.69,0.92-5.69,1.46-8.58,1.51c-1.23,0.02-2.62,0.04-3.73-0.38
				c0.68-0.11,1.41,0.11,2.04,0.13c2.99,0.08,6.83-0.29,9.57-1.39L35.24,21.22z"></path>
			<path class="st7" d="M36.51,32.55c-2.49,0.68-5.27,1.35-7.88,1.51c-0.14-0.57,0.33-0.54,0.77-0.63
				C30.36,33.24,35.88,32.48,36.51,32.55z"></path>
			<path class="st8" d="M39.18,16.31c-0.03,0.12,0.01,0.26,0,0.38l-4.36,1.26c-0.13-0.03-0.72,0.11-0.63-0.13
				c1.31-0.26,2.44-0.93,3.66-1.39C37.98,16.38,39.19,15.87,39.18,16.31z"></path>
			<path class="st10" d="M32.99,43.63l0.28,0.13c-2.51,0.52-5.02,1.13-7.6,1.26c0.07-0.34,0.71-0.3,1.13-0.38
				C28.85,44.28,30.94,44.04,32.99,43.63z"></path>
			<path class="st7" d="M39.32,15.3c-0.02,0.11,0.04,0.32,0,0.38c0,0.01-0.11,0.1-0.14,0.13c-0.15,0.12-1.92,0.46-2.25,0.69v-0.44
				C37.71,15.8,38.49,15.37,39.32,15.3z"></path>
			<path class="st10" d="M35.8,20.97c0-0.12,0.01-0.25,0-0.38l3.09-1.07C37.96,20.16,36.87,20.55,35.8,20.97z"></path>
			<g>
				<path class="st13" d="M14,11.02c1.53,0.73,3,1.62,4.78,1.95c-0.98,0.47-6.15-2.34-6.33-2.01c2.32,1.51,5.5,2.41,8.37,2.46
					c0.18,0,0.8,0.11,0.56-0.25c-2.14,0.12-3.99-0.96-5.84-1.76c0.75,0.1,1.51,0.24,2.25,0.38c0.82,0.15,1.7,0.4,2.53,0.5
					c0.14,0.02,0.29-0.02,0.42,0c0.12,0.59,2.24,0.72,2.88,0.76c2.41,0.15,5.01-0.02,7.38-0.25v0.38c-1.19,0.16-2.4,0.29-3.59,0.5
					h-5.56c-1.75-0.11-3.44-0.16-5.13-0.5c0.39,0.26,5.16,1.87,4.99,1.32c-0.62-0.37-1.78-0.16-2.32-0.69
					c1.1,0.19,2.19,0.31,3.31,0.38l-0.35,0.38c0.77,0.08,1.55,0.1,2.32,0.13l-0.28,0.25c-0.24,0-1.38,0.16-0.63,0.38
					c0.74,0.22,2.4-0.31,3.16,0.19c-0.91,0.27-2.2-0.1-3.02-0.06c-0.23,0.01-0.48-0.04-0.28,0.25c3.8,0.22,7.76-0.15,11.32-1.32
					c-0.19-0.11-0.48-0.07-0.7-0.06l-0.14-0.25c1.26-0.17,2.97-0.36,4.15-0.76c0.08-0.03,0.92-0.31,0.7-0.5l-2.95,0.5
					c-0.47-0.23,2.92-0.73,3.16-0.76c0.14,0.23-0.14,0.72-0.14,0.76c-3.89,1.29-7.26,2.39-11.46,2.64c-1.59,0.1-4-0.26-5.35-0.13
					c-1.22,0.13,0.63,0.59,0.98,0.63c5.05,0.59,11.31-1.29,15.97-2.9c-0.02,0.08,0.02,0.19,0,0.25c-2.53,0.64-4.89,1.78-7.53,2.27
					c-2.74,0.5-5.59,0.59-8.37,0.69c2.95,0.76,5.99-0.27,8.93-0.57c-1.27,1.14-7.7,0.72-8.3,1.01c-0.17,0.08-0.15,0.29,0.14,0.38
					c1.6,0.48,8.02-0.97,9.85-1.51c0.61-0.18,5.12-1.74,5.27-1.95c0.04-0.05-0.03-0.23,0-0.31c0.04-0.01,0.1,0.01,0.14,0
					c0,0.33,0,0.67,0,1.01l-7.1,2.14l-0.14,0.38c1.65-0.34,3.26-0.74,4.85-1.26v0.44c0.33-0.23,2.1-0.57,2.25-0.69
					c-0.01,0.1,0.03,0.14,0.14,0.13c0.11,0.27-0.14,0.36-0.14,0.38c0.01-0.43-1.2,0.08-1.34,0.13c-1.22,0.45-2.34,1.13-3.66,1.39
					c-0.08,0.24,0.5,0.09,0.63,0.13c1.38,0.34,2.8-0.54,4.36-0.76c0,0.08,0,0.17,0,0.25c-0.01,0.29,0.02,0.59,0,0.88l-2.67,0.94
					l2.53-0.57c0,0.01,0.04-0.02,0,0.25c-3.43,0.91-6.74,2.33-10.34,2.64c-0.2,0.02-4.98-0.06-3.52,0.38
					c2.57,0.78,8.3-1.27,10.9-1.7c-0.25,0.12-0.3,0-0.28,0.31c0.01,0.12,0,0.25,0,0.38c-0.17,0.06-0.3,0.16-0.56,0.25l-0.7-0.13
					c0.35-0.14,0.73-0.18,0.98-0.44l-4.57,1.2l-5.98,0.63c-0.63-0.02-1.36-0.24-2.04-0.13c1.11,0.42,2.5,0.4,3.73,0.38
					c1.87,0.25,4.19-0.03,6.05-0.38v0.25c-2.71,0.48-5.32,0.2-7.81,0.5c-0.46,0.06-0.44,0.02-0.21,0.38
					c-4.23-0.29-6.24-1.77-9.85-2.58c-0.23-0.05-0.48-0.14-0.7,0l4.29,1.57c-1.17,0.52,0.18,0.26,0.56,0.38
					c2.2,0.68,3.4,0.96,5.84,1.01l-0.14,0.25c-1.9,0.01-3.82-0.05-5.7-0.5c0.31,0.55,2.13,0.68,2.88,0.76
					c0.21,0.41,1.04,0.47,1.48,0.5c5.15,0.43,11.28-1.19,15.82-3.27c0,0.03,0.12,0.25,0.14,0.5l-3.66,1.2
					c1.21,0.19,2.57-0.58,3.66-0.94c0.01,0.21-0.01,0.42,0,0.63l-11.75,2.27c-0.97,0.47,1.83,0.27,1.97,0.25
					c2.36-0.24,4.77-1.18,7.1-1.57c-1.55,0.58-3.22,1.11-4.85,1.45c-0.72,0.15-4.18,0.39-4.36,0.5c-0.19,0.11-0.12,0.65,0.28,0.5
					l10.62-2.46c-3.59,1.5-7.41,2.58-11.39,2.77c-0.03,0.04,0.18,0.43,0.21,0.44c1.15,0.5,10.81-2.14,12.17-3.4
					c0.01,0.29,0,0.59,0,0.88c0,0.77-0.11,1.51-0.14,2.27c-0.01,0.12,0.16,0.53,0.14,0.88c-0.03,0.46-0.06,1.06-0.14,1.51l-3.52,1.2
					c0.69,0.35,3.3-0.53,3.52-0.82l0.28,0.13c-0.02,0-0.04,0.19-0.28,0.25c-2.8,0.65-4.85,1.27-7.81,1.76
					c-0.31,0.05-1.06,0.06-0.91,0.5c-5.07,0.55-8.64,0.36-13.43-1.26c-0.27-0.09-4.03-1.98-4.01-1.45
					c5.66,2.88,10.99,3.78,17.44,3.09c0.03,0.7,2.35,0.21,2.88,0.13c1.94-0.3,4.24-0.83,5.98-1.64c-0.02,0.16,0.04,0.37,0,0.5
					c-0.35-0.2-2.26,0.5-1.76,0.76c0.13-0.17,0.3-0.13,0.49-0.13c-0.11,0.67,0.46,0.13,0.98,0.25c0.26,0.55,0.31,0.48,0.28,1.26
					c-0.01,0.17-0.08,0.58-0.14,0.76c-2.06,1.17-4.48,1.92-6.82,2.52c-0.4,0.1-3.32,0.35-2.88,0.82c0.25,0.27,5.52-1.17,6.33-1.45
					v0.25c-3.28,1-6.66,2.01-10.2,1.76c-1.25,0.62,2.91,0.4,3.09,0.38c3.39-0.34,7.15-1.77,10.48-2.52c0.04,0.28,0,0.24,0,0.25
					l-1.69,0.82l1.83-0.44c0,0.08,0,0.17,0,0.25c-2.81,1.56-7.05,2.81-10.34,3.27c-0.96,0.14-2.59-0.03-3.38,0.13
					c-1.63,0.33,2.04,0.4,2.39,0.38c3.73-0.24,8-1.84,11.32-3.27c0.01,0.31-0.14,0.24-0.14,0.25c-3.11,1.56-6.56,2.54-10.06,3.15
					c-0.39,0.07-2.33-0.06-2.18,0.44c0.33,1.12,11.29-2.54,12.24-3.21c0,0.1,0,0.17,0,0.25c-3,1.25-6.11,2.5-9.35,3.15
					c-0.21,0.04-3.66,0.18-3.16,0.69c0.75,0.78,11.12-2.64,12.66-3.34c0,0.08,0,0.17,0,0.25c0,0.04,0,0.08,0,0.13
					c-2.96,0.99-5.98,2.27-9.07,2.9c-0.64,0.13-3.77,0.28-3.94,0.38c-0.09,0.05-0.11,0.4-0.07,0.44c0.45,0.56,11.82-2.39,13.08-3.21
					c0,0.08,0,0.17,0,0.25c0,0.17-0.01,0.34,0,0.5l-3.94,1.57c1.23,0.31,2.77-0.49,3.94-0.82c0.01,0.08-0.01,0.17,0,0.25
					c-3.41,1-7.4,1.95-10.97,2.39v-0.25c1.79-0.29,5.47-1.24,7.38-1.89c1.07-0.36,2.21-1.11,3.38-1.39
					c0.18-0.16,0.09-0.23-0.14-0.25c-0.35-0.03-3.9,1.55-4.64,1.76c-0.82,0.24-2.03,0.61-2.67,0.76c-0.97,0.22-3.31,0.23-4.08,0.5
					c-0.39,0.14-0.39,0.28-0.35,0.63c-0.5,0.05-1.05-0.09-1.55,0.06c0.17,0.42,0.76,0.31,1.13,0.31v0.25
					c-0.42,0.07-1.06,0.04-1.13,0.38c-0.02,0.1-0.03,0.33,0.07,0.38c0.78,0.39,9.92-1.52,11.25-2.01l1.41-0.88
					c-1.66,0.54-3.42,0.9-5.13,1.26l-0.28-0.13c0.89-0.18,5.99-1.55,6.33-1.51c-0.01,0.12,0.01,0.25,0,0.38c0,0.04,0.01,0.09,0,0.13
					c-1.96,1.06-4.55,1.7-6.82,2.14c-2.69,0.52-5.54,0.97-8.3,0.76l0.07,0.38c-1.54-0.08-3.08-0.3-4.57-0.63
					c-1.15-0.26-5.1-1.82-5.84-1.64c-0.12,0.03-0.37-0.06-0.42,0.06c-0.01,0.03,0.39,0.24,0.28,0.44c-0.86-0.53-1.41-1.09-2.11-1.76
					c-0.19-0.18,0.05,0.08-0.14-0.12c0.46-0.29,0.24-1.05,0.42-1.51c0.27,0.7,1.27,0.47,1.34,0.5c0.07,0.04,0.18,1.04,1.27,0.88
					c0.54,0.36-0.58,0.14-0.63,0.13c-0.26-0.12-0.44-0.42-0.84-0.19c0.22,0.31,0.55,0.14,0.84,0.19c0.64,0.3,1.27,0.57,1.9,0.88
					c1.68-0.15,4.01,1.32,6.12,1.32c-2.22-0.84-4.66-1.18-6.4-2.71c-0.59,0.18,0.51,0.38-0.28,0.38l-3.16-1.64
					c0.24-0.99-0.02-1.28-0.14-2.14L14,38.91l-2.11-0.82c0-0.12,0.07-0.51,0.14-0.63c0.73,0.38,1.44,0.77,2.18,1.13
					c0.02,0.01,0.55-0.02,0.56,0c0.34,0.66-0.55,0.65,1.13,0.76c0.11,0.01,0.03,0.24,0.14,0.25c0.12,0.01,0.25-0.38,0.28-0.38
					c0.51,0.06,0.63,0.33,0.84,0.38c2.37,0.49,4.79,0.89,7.24,0.94c-0.07-0.4-0.9-0.37-1.34-0.44c-0.09-0.02-0.05,0.27-0.14,0.25
					c-0.05-0.01-0.47-0.33-0.84-0.38c-2.87-0.4-5.98-0.64-8.58-2.01c-0.23-0.12-1.78-1.07-1.13-1.13l8.79,2.46l-8.93-2.83
					c-0.14-0.18-0.08-1.66-0.07-2.01c0.01-0.28-0.04-0.61,0-0.88c0.03-0.19-0.13-0.53,0.21-0.5c0.57,0.66,1.93,1.21,2.81,1.51
					c0.07,0.02,0.03-0.33,0.28-0.25c0.58,0.18,2.17,1.36,2.74,0.69l-6.19-2.08c0-0.33,0-0.67,0-1.01c0.3-0.2,0.48-0.11,0.77,0
					c4.58,1.73,8.24,3.15,13.29,3.15c-0.06,0.5,0.11,0.35,0.49,0.38c1.16,0.1,6.63-0.66,7.46-1.26c0.22-0.16,0.17-0.53,0.21-0.76
					c0.35-0.08,3.38-0.66,2.74-1.01c-0.11-0.06-0.24,0.15-0.49,0.13c-0.63-0.07-6.15,0.69-7.1,0.88c-0.44,0.09-0.92,0.06-0.77,0.63
					c-0.09,0.01-0.19,0-0.28,0c0.41-0.75-1.61-0.51-1.41,0c-3.87,0.05-7.02-0.62-10.62-1.76c-1.14-0.36-2.54-1.35-3.73-1.2
					c4.81,2.03,9.24,3.4,14.63,3.21c0,0.53,0.7,0.39,1.05,0.38c1.81-0.07,3.6-0.76,5.42-0.82c-2.08,0.69-4.26,0.96-6.47,1.07
					l-7.95-1.01c-2.44-0.54-4.82-1.99-7.1-2.39c-0.02-0.5,0.03-1.01,0-1.51c-0.02-0.3-0.13-0.6-0.14-0.76
					c-0.01-0.17,0.01-0.34,0-0.5l7.67,2.64l0.49-0.31l-8.16-2.83c0-0.12,0-0.25,0-0.38c5.07,2.1,8.66,3.39,14.35,3.53
					c-0.29,0.76,1.44,0.53,1.9,0.5c0.42-0.02,4.04-0.52,4.22-0.63c0.12-0.08,0.12-0.17,0-0.25c-0.94,0.22-1.92,0.32-2.88,0.38
					c0.06-0.38-0.38-0.24-0.63-0.25c-5.47-0.17-12.22-0.7-16.81-3.78c-0.02-0.01-0.12-0.28-0.28-0.25c0.02-0.03,0.13-0.47,0.14-0.5
					c0.82,0.3,1.59,0.68,2.39,1.01c1.23,0.51,2.74,1.13,4.01,1.51c0.18,0.05,2.71,0.86,2.6,0.44c-0.9-0.39-1.89-0.5-2.81-0.82h0.91
					c-2.09-1.08-4.84-1.69-6.96-2.9c0.02-0.17-0.12-1.17-0.14-1.51c-0.02-0.44,0.09-1.14,0-1.51l8.58,1.7
					c-1.07-0.19-2.12-0.73-3.16-0.94c-0.11-0.02-0.03,0.4-0.14,0.38c-1.76-0.38-3.42-1.37-5.2-1.51c0.15-0.47,0.09-0.9,0.07-1.39
					c-0.02-0.36-0.14-0.46-0.14-0.88c0-0.33,0.14-0.81,0.14-1.2c0-0.04-0.42-0.55,0.07-0.57c0.15,0,0.43,0.76,0.7,0l5.42,1.83
					l-5.56-2.33c-0.33,0-0.65,1.02-0.77-0.76c-0.03-0.47,0.25-0.97,0.14-1.39c-0.02-0.07-0.32-0.28-0.42-0.38
					c-0.08-0.26,0.14-0.24,0.14-0.25l9.57,2.46l-9.42-2.83c0.13-0.47,0.13-0.66,0.14-1.13c0.01-0.45-0.14-0.97-0.14-1.26
					c0-0.29-0.14-0.7-0.14-0.76c0-0.08,0-0.36,0-0.38c0.01-0.08,0.13-0.72,0.14-0.76c0.05-0.13-0.02-0.27,0.21-0.38
					C12.84,10.41,13.41,10.74,14,11.02z"></path>
				<g>
					<path class="st7" d="M39.04,18.95c-0.03,0.2,0.27,0.52,0.14,0.82c-0.41,0.98-5.28,2.36-6.47,2.58
						c-1.86,0.35-4.18,0.63-6.05,0.38c2.89-0.05,5.89-0.59,8.58-1.51c0.27-0.09,0.4-0.19,0.56-0.25c1.07-0.42,2.16-0.8,3.09-1.45
						l-3.09,1.07c-0.02-0.32,0.03-0.19,0.28-0.31c-2.6,0.43-8.33,2.48-10.9,1.7c-1.47-0.44,3.31-0.36,3.52-0.38
						C32.3,21.28,35.61,19.86,39.04,18.95z"></path>
					<path class="st7" d="M39.04,13.28c0,0.12,0.16,0.15,0.14,0.25c-4.66,1.6-10.91,3.48-15.97,2.9c-0.35-0.04-2.21-0.5-0.98-0.63
						c1.34-0.14,3.75,0.22,5.35,0.13C31.77,15.67,35.15,14.58,39.04,13.28z"></path>
					<path class="st7" d="M39.18,36.33c-3.33,0.74-7.09,2.18-10.48,2.52c-0.19,0.02-4.34,0.24-3.09-0.38
						c3.54,0.24,6.92-0.76,10.2-1.76c1.14-0.35,2.3-0.64,3.31-1.26C39.59,35.74,39.14,36.08,39.18,36.33z"></path>
					<path class="st9" d="M29.61,31.42c-1.23,0.07-2.04,0.03-3.24,0c-5.69-0.14-9.28-1.43-14.35-3.53c0-0.13-0.23-0.22,0.14-0.5
						c4.59,3.08,11.34,3.61,16.81,3.78C29.24,31.17,29.68,31.04,29.61,31.42z"></path>
					<path class="st7" d="M39.32,39.48c0,0.13,0,0.25,0,0.38c0,0.04,0,0.08,0,0.13c-1.26,0.82-12.63,3.78-13.08,3.21
						c-0.04-0.05-0.02-0.39,0.07-0.44c0.17-0.1,3.29-0.25,3.94-0.38C33.34,41.74,36.36,40.46,39.32,39.48z"></path>
					<path class="st7" d="M39.32,37.21c0.01,0.17-0.01,0.34,0,0.5c-3.33,1.44-7.6,3.03-11.32,3.27c-0.35,0.02-4.02-0.05-2.39-0.38
						c0.79-0.16,2.41,0.01,3.38-0.13C32.27,40.02,36.51,38.77,39.32,37.21z"></path>
					<path class="st7" d="M39.32,39.1c-1.54,0.69-11.91,4.12-12.66,3.34c-0.49-0.52,2.96-0.65,3.16-0.69
						c3.25-0.64,6.35-1.9,9.35-3.15C39.18,38.68,39.32,38.82,39.32,39.1z"></path>
					<path class="st9" d="M27.22,34.94c-0.39,0.02-0.73,0.13-1.13,0.13c-5.06,0-8.72-1.41-13.29-3.15c-0.29-0.11-0.48-0.2-0.77,0
						v-0.38c0.05,0.01,0.1-0.01,0.14,0c2.29,0.4,4.67,1.85,7.1,2.39L27.22,34.94z"></path>
					<path class="st7" d="M39.18,38.34c-0.95,0.67-11.91,4.33-12.24,3.21c-0.15-0.5,1.79-0.37,2.18-0.44
						c3.5-0.61,6.94-1.59,10.06-3.15C39.18,38.1,39.18,38.22,39.18,38.34z"></path>
					<path class="st9" d="M14,11.02c0.42-0.2,1.1,0.18,1.55,0.38c1.85,0.81,3.69,1.88,5.84,1.76c0.24,0.36-0.38,0.25-0.56,0.25
						c-2.87-0.04-6.05-0.94-8.37-2.46c0.18-0.33,5.35,2.48,6.33,2.01C17,12.64,15.53,11.74,14,11.02z"></path>
					<path class="st7" d="M35.8,36.45c-0.81,0.27-6.08,1.72-6.33,1.45c-0.44-0.46,2.48-0.72,2.88-0.82
						c2.34-0.59,4.76-1.35,6.82-2.52c-0.06,0.17,0.09,0.47-0.07,0.63C38.99,35.31,36.22,36.31,35.8,36.45z"></path>
					<path class="st7" d="M39.32,41.74c0,0.01,0.22-0.01,0.14,0.25v0.13c-0.03-0.01-0.09,0.01-0.14,0
						c-0.34-0.04-5.44,1.33-6.33,1.51c-2.05,0.41-4.14,0.65-6.19,1.01v-0.25c0.43,0,1.1-0.2,1.55-0.25
						C31.92,43.7,35.91,42.74,39.32,41.74z"></path>
					<path class="st9" d="M12.03,28.77c-0.01-0.17,0-0.34,0-0.5l8.16,2.83l-0.49,0.31L12.03,28.77z"></path>
					<path class="st7" d="M39.18,29.65c-0.21,0.29-2.83,1.17-3.52,0.82l3.52-1.2C39.16,29.39,39.21,29.61,39.18,29.65z"></path>
					<path class="st7" d="M39.18,18.32c-0.02,0.24-0.13,0.27-0.14,0.38l-2.53,0.57L39.18,18.32z"></path>
					<path class="st7" d="M39.32,36.96l-1.83,0.44l1.69-0.82C39.19,36.69,39.31,36.72,39.32,36.96z"></path>
					<path class="st7" d="M39.32,22.98c0.01,0.25-0.01,0.51,0,0.76c-1.35,1.26-11.02,3.9-12.17,3.4c-0.03-0.01-0.25-0.4-0.21-0.44
						c3.99-0.19,7.81-1.27,11.39-2.77l-10.62,2.46c-0.4,0.15-0.47-0.39-0.28-0.5c0.18-0.11,3.65-0.36,4.36-0.5
						c1.64-0.34,3.31-0.87,4.85-1.45c-2.33,0.39-4.74,1.33-7.1,1.57c-0.14,0.01-2.94,0.22-1.97-0.25L39.32,22.98z"></path>
					<path class="st7" d="M39.18,13.79c-0.03,0.09,0.04,0.26,0,0.31c-0.16,0.21-4.67,1.77-5.27,1.95c-1.83,0.54-8.25,1.99-9.85,1.51
						c-0.29-0.09-0.31-0.3-0.14-0.38c0.6-0.29,7.03,0.13,8.3-1.01c-2.94,0.29-5.98,1.32-8.93,0.57c2.78-0.11,5.63-0.19,8.37-0.69
						C34.29,15.57,36.65,14.43,39.18,13.79z"></path>
					<path class="st10" d="M26.94,34.06c0.46-0.01,0.94,0.02,1.41,0c0.09,0,0.19,0.01,0.28,0c2.6-0.16,5.39-0.84,7.88-1.51
						c0.25,0.03,0.38-0.19,0.49-0.13c0.63,0.35-2.39,0.93-2.74,1.01c-2.3,0.51-4.67,0.8-7.03,0.88c-5.39,0.18-9.82-1.18-14.63-3.21
						c1.19-0.16,2.59,0.83,3.73,1.2C19.92,33.45,23.08,34.11,26.94,34.06z"></path>
					<path class="st7" d="M24.41,14.92c3.5-0.05,6.56-0.51,9.85-0.63c0.22-0.01,0.52-0.04,0.7,0.06c-3.56,1.17-7.52,1.54-11.32,1.32
						c-0.2-0.29,0.05-0.24,0.28-0.25c0.83-0.04,2.11,0.34,3.02,0.06c-0.76-0.5-2.42,0.03-3.16-0.19
						C23.03,15.08,24.17,14.92,24.41,14.92z"></path>
					<path class="st10" d="M30.46,32.3c0.18-0.02,0.38,0.02,0.56,0l0.14,0.25c-0.2,0.03-0.41,0.09-0.7,0.13
						c-6.45,0.69-11.78-0.21-17.44-3.09c-0.02-0.53,3.74,1.36,4.01,1.45C21.82,32.65,25.39,32.84,30.46,32.3z"></path>
					<path class="st7" d="M25.68,45.02c2.58-0.13,5.09-0.74,7.6-1.26c1.72-0.36,3.47-0.72,5.13-1.26L37,43.38
						c-1.33,0.49-10.47,2.4-11.25,2.01C25.64,45.34,25.65,45.12,25.68,45.02z"></path>
					<path class="st7" d="M34.26,33.43c-0.04,0.22,0.01,0.6-0.21,0.76c-0.83,0.6-6.29,1.35-7.46,1.26
						c-0.39-0.03-0.56,0.12-0.49-0.38c0.39,0,0.73-0.11,1.13-0.13c2.21-0.11,4.39-0.38,6.47-1.07c-1.81,0.06-3.61,0.75-5.42,0.82
						c-0.35,0.01-1.06,0.15-1.05-0.38C29.59,34.23,31.96,33.95,34.26,33.43z"></path>
					<path class="st10" d="M24.69,23.48c0.92,0.06,1.95-0.18,2.81,0.19c0,0.31-2.37,0.2-2.67,0.19c-2.44-0.05-3.63-0.33-5.84-1.01
						c-0.38-0.12-1.73,0.14-0.56-0.38l-4.29-1.57c0.22-0.14,0.47-0.05,0.7,0C18.45,21.72,20.46,23.19,24.69,23.48z"></path>
					<path class="st7" d="M25.82,20.97c2.06-0.13,4.02-0.31,6.05-0.63c1.44-0.22,2.85-0.58,4.22-0.82
						c-3.16,1.17-7.88,2.34-11.32,1.95C21.89,21.14,25.06,21.01,25.82,20.97z"></path>
					<path class="st12" d="M13.86,42.25c0.05,0.01,1.17,0.24,0.63-0.13c-1.09,0.16-1.19-0.84-1.27-0.88
						c-0.07-0.04-1.07,0.19-1.34-0.5c0.04-0.11,0.11-0.15,0.14-0.25l3.16,1.64c0.79,0.01-0.31-0.2,0.28-0.38
						c1.74,1.53,4.18,1.87,6.4,2.71c-2.11-0.01-4.44-1.47-6.12-1.32C15.13,42.82,14.5,42.55,13.86,42.25z"></path>
					<path class="st7" d="M36.15,37.84c0.44,0.04,0.45,0.07,0.28,0.5c-1.2,0.47-9.68,2.55-10.2,1.95c-0.04-0.04-0.02-0.39,0.07-0.44
						c0.18-0.1,3.44-0.23,4.22-0.38C31.46,39.3,35.86,37.81,36.15,37.84z"></path>
					<path class="st7" d="M28.35,43.88c-0.36,0.06-0.76,0.09-1.13,0.13c-0.04-0.35-0.04-0.49,0.35-0.63
						c0.77-0.27,3.11-0.28,4.08-0.5c0.65-0.15,1.86-0.52,2.67-0.76c0.74-0.22,4.29-1.79,4.64-1.76c0.23,0.02,0.32,0.09,0.14,0.25
						c-1.16,0.27-2.31,1.02-3.38,1.39C33.82,42.64,30.14,43.59,28.35,43.88z"></path>
					<path class="st9" d="M14.07,18.19c2.13,0.26,4.77,1.75,6.75,2.01c2.17,0.29,4.89-0.43,7.1-0.06c-2.26,0.21-5.28,0.57-7.53,0.31
						c-1.56-0.18-3.02-1.15-4.36-1.64C15.69,18.7,14.32,18.77,14.07,18.19z"></path>
					<path class="st7" d="M36.3,37.34c0.12,0,0.32-0.04,0.35,0.06c-1.11,0.67-9.71,2.78-10.27,2.14c-0.53-0.61,2.76-0.48,3.31-0.57
						C31.31,38.72,35.06,37.32,36.3,37.34z"></path>
					<path class="st10" d="M13.51,16.05c3.74,1.07,7.32,2.26,11.32,2.33C21.06,18.84,16.78,17.71,13.51,16.05z"></path>
					<path class="st12" d="M12.95,30.28l10.48,3.09c0,0.22-1.06,0.08-1.2,0.06c-2.46-0.33-6.48-1.63-8.72-2.64
						C13.36,30.72,12.74,30.51,12.95,30.28z"></path>
					<path class="st10" d="M18.22,28.77c-0.95-0.33-2.35-1.07-3.16-1.26c-0.4-0.09-0.27-0.11-0.63,0.13
						c-0.81-0.33-1.57-0.71-2.39-1.01c0.04-0.2,0.12-0.57,0.14-0.76c2.12,1.21,4.88,1.81,6.96,2.9H18.22z"></path>
					<path class="st9" d="M11.89,15.17c0.07-0.32,0.13-0.35,0.14-0.38l9.42,2.83L11.89,15.17z"></path>
					<path class="st7" d="M32.43,18.45c-1.4,0.27-2.78,0.6-4.22,0.76c-1.09,0.12-4.76,0.49-5.56,0.25c-0.29-0.09-0.31-0.3-0.14-0.38
						c0.17-0.08,3.25,0.04,3.8,0C27.44,18.99,31.74,18.13,32.43,18.45z"></path>
					<path class="st12" d="M12.8,34.06c1.24-0.11,2.75,1.19,3.66,1.39c0.11,0.02,0.03-0.4,0.14-0.38c0.22,0.04,0.69,0.56,0.98,0.25
						c0.28,0.83-0.44-0.05-0.63,0.31l1.34,0.57l4.99,1.32C19.49,37.37,16.19,35.41,12.8,34.06z"></path>
					<path class="st10" d="M13.09,25.25l6.68,1.83l-5.27-1.2c0.04,0.36,4.06,1.29,3.38,1.51C16.29,26.8,14.11,26.53,13.09,25.25z"></path>
					<path class="st10" d="M12.38,23.86l9.92,3.34c-3.15-0.5-6.27-1.51-9.07-2.83C13.17,24.34,12.05,24.61,12.38,23.86z"></path>
					<path class="st7" d="M21.88,13.66h5.56c1.18-0.22,2.39-0.35,3.59-0.5c0.91-0.12,1.82-0.37,2.74-0.38
						C29.91,14.05,25.97,13.92,21.88,13.66z"></path>
					<path class="st9" d="M12.95,12.65c0.43-0.06,6.72,3.31,7.95,3.34l-5.13-1.45c-0.12-0.17-0.54-0.55-0.7-0.63
						C14.93,13.85,11.9,12.79,12.95,12.65z"></path>
					<path class="st10" d="M12.52,13.16c0.35-0.2,6.21,3.41,7.53,3.21c0.3,0.39-1.79-0.02-1.9-0.06c-0.47-0.19,0.19-0.31,0-0.38
						c-1.08-0.4-4.82-1.6-5.49-2.27C12.53,13.53,12.28,13.3,12.52,13.16z"></path>
					<path class="st12" d="M16.18,41.37l7.81,2.08c-1.1-0.01-2.24-0.2-3.31-0.44c-0.56-0.13-4.06-1.09-4.36-1.26
						C16.21,41.68,15.98,41.43,16.18,41.37z"></path>
					<path class="st9" d="M12.24,32.05c2.63,1.21,5.29,2.26,8.23,2.71c-2.9,0.21-5.63-1.33-8.23-2.33V32.05z"></path>
					<path class="st7" d="M34.54,21.09c-2.74,1.1-6.58,1.46-9.57,1.39l5.98-0.63l4.57-1.2C35.27,20.91,34.88,20.95,34.54,21.09z"></path>
					<path class="st10" d="M15.2,39.6l6.96,1.95c-0.43,0.67-0.59-0.06-0.63-0.06c-1.74-0.15-3.94-0.6-5.63-1.26
						C15.75,40.17,14.88,39.87,15.2,39.6z"></path>
					<path class="st10" d="M39.32,15.3c-0.83,0.07-1.61,0.5-2.39,0.76c-1.59,0.52-3.2,0.92-4.85,1.26l0.14-0.38l7.1-2.14
						C39.32,14.96,39.35,15.16,39.32,15.3z"></path>
					<path class="st9" d="M13.37,39.6l6.82,2.33c-2.27-0.39-4.72-1.09-6.96-2.08L13.37,39.6z"></path>
					<path class="st9" d="M12.24,11.65l5.98,2.33c-0.67,0.07-2.12-0.35-2.74-0.57C14.5,13.07,12.85,12.36,12.24,11.65z"></path>
					<path class="st12" d="M14.7,36.71c1.89,0.63,3.9,0.86,5.77,1.57c0.02,0.35-3.34-0.46-3.73-0.57c-0.7-0.2-1.43-0.5-2.11-0.76
						C14.47,36.9,14.78,36.74,14.7,36.71z"></path>
					<path class="st9" d="M12.17,33.56c-0.2,0-0.13-0.13-0.14-0.25c-0.01-0.08,0-0.17,0-0.25c0-0.04,0-0.08,0-0.13l6.19,2.08
						c-0.57,0.67-2.16-0.51-2.74-0.69c-0.26-0.08-0.21,0.28-0.28,0.25c-0.88-0.3-2.24-0.85-2.81-1.51
						C12.04,33.03,12.2,33.37,12.17,33.56z"></path>
					<path class="st7" d="M33.2,27.01c0.21,0.26-0.09,0.31-0.28,0.38c-0.61,0.23-5.95,1.32-6.12,1.07c0.25-0.7,1.91-0.44,2.6-0.57
						C30.67,27.67,31.96,27.34,33.2,27.01z"></path>
					<path class="st10" d="M15.34,17.82l5.7,1.83C19.23,19.4,16.55,19.02,15.34,17.82z"></path>
					<path class="st10" d="M31.86,20.34c-2.03,0.31-3.99,0.5-6.05,0.63c0.35-0.73,1.91-0.19,2.6-0.63H31.86z"></path>
					<path class="st9" d="M18.22,28.77c0.92,0.31,1.92,0.43,2.81,0.82c0.11,0.41-2.43-0.39-2.6-0.44c-1.27-0.38-2.77-1.01-4.01-1.51
						c0.37-0.24,0.23-0.22,0.63-0.13C15.87,27.71,17.27,28.45,18.22,28.77z"></path>
					<path class="st9" d="M18.08,18.32c-1.17-0.3-2.77-0.63-3.87-1.01c-0.26-0.09-1.96-0.66-1.76-0.94c1.77,0.5,3.5,1.07,5.27,1.57
						C17.87,17.98,18.05,18.31,18.08,18.32z"></path>
					<path class="st7" d="M39.32,41.49c-1.16,0.33-2.71,1.13-3.94,0.82l3.94-1.57C39.33,40.99,39.3,41.24,39.32,41.49z"></path>
					<path class="st11" d="M26.38,31.42c1.2,0.03,2.01,0.07,3.24,0c0.96-0.06,1.95-0.16,2.88-0.38c0.12,0.08,0.12,0.18,0,0.25
						c-0.18,0.11-3.8,0.61-4.22,0.63C27.82,31.95,26.09,32.17,26.38,31.42z"></path>
					<path class="st10" d="M12.8,21.59l3.59,1.32c-0.61,0.1-2.22-0.36-2.74-0.57C13.59,22.33,12.59,21.78,12.8,21.59z"></path>
					<path class="st10" d="M18.85,35.19c1.23,0.58,3.05,0.44,4.22,0.76c0.2,0.05,0.49-0.04,0.49,0.31
						c-1.68,0.03-3.27-0.41-4.85-0.82L18.85,35.19z"></path>
					<path class="st10" d="M39.18,17.19c-1.56,0.22-2.99,1.09-4.36,0.76l4.36-1.26C39.16,16.85,39.19,17.02,39.18,17.19z"></path>
					<polygon class="st9" points="16.6,24.87 21.6,26.32 17.59,25.5 					"></polygon>
					<path class="st12" d="M13.37,35.19c0.22-0.04,3.3,1.78,4.01,1.7c-0.24,0.32-0.36,0.12-0.63,0.06c-0.3-0.06-3.68-1.15-3.73-1.32
						C13.01,35.61,13.34,35.2,13.37,35.19z"></path>
					<path class="st10" d="M14.63,43c0.36-0.04,3.55,1.12,4.15,1.32c-0.97-0.17-2.26-0.28-3.16-0.57
						C15.49,43.72,13.89,43.09,14.63,43z"></path>
					<path class="st10" d="M32.43,18.45l0.21,0.25c-1.33,0.1-3.22,1.1-4.43,0.5C29.65,19.04,31.02,18.71,32.43,18.45z"></path>
					<path class="st9" d="M15.76,19.83l4.99,1.57c-0.65,0.13-1.97-0.25-2.6-0.44C17.51,20.77,16.04,20.31,15.76,19.83z"></path>
					<path class="st10" d="M24.34,37.34l3.59,0.31c0,0.34-3.12,0.17-3.45,0.06C24.19,37.62,24.18,37.6,24.34,37.34z"></path>
					<path class="st7" d="M39.32,22.1c0.01,0.08,0,0.17,0,0.25c-1.08,0.36-2.45,1.14-3.66,0.94L39.32,22.1z"></path>
					<path class="st12" d="M12.52,23.36l3.45,1.45C15.9,24.98,12.64,23.88,12.52,23.36z"></path>
					<path class="st9" d="M12.66,19.45c0.16,0,2.32,1.21,2.74,1.32c-0.99-0.18-2.14-0.25-2.81-1.01
						C12.35,19.67,12.6,19.45,12.66,19.45z"></path>
					<path class="st12" d="M13.79,34.94l3.87,1.7C17.58,36.82,13.92,35.35,13.79,34.94z"></path>
					<path class="st10" d="M18.08,18.32c0.35,0.09,2.4-0.22,2.67,0.57C19.79,18.99,18.95,18.54,18.08,18.32z"></path>
					<path class="st10" d="M18.57,27.51l2.88,0.69C20.74,28.31,18.84,28.06,18.57,27.51z"></path>
					<path class="st10" d="M28.35,43.88v0.25c-0.45,0.05-1.11,0.25-1.55,0.25c-0.36,0-0.96,0.1-1.13-0.31
						c0.5-0.15,1.04-0.02,1.55-0.06C27.59,43.97,27.99,43.94,28.35,43.88z"></path>
					<path class="st9" d="M18.01,35.45l2.46,0.82C20.2,36.56,17.41,35.73,18.01,35.45z"></path>
					<path class="st11" d="M39.32,31.67c-0.14,0.46,0.11,0.27-0.42,0.5c-0.34,0.15-0.48,0.13-0.84,0.13c-0.2,0-0.36-0.05-0.49,0.13
						C37.05,32.17,38.97,31.47,39.32,31.67z"></path>
					<path class="st10" d="M12.95,18.82c0.93,0.19,1.48,0.49,1.9,1.2C14.78,20.18,12.88,19.2,12.95,18.82z"></path>
					<path class="st10" d="M15.62,20.84l3.45,1.07C17.96,21.92,16.44,21.47,15.62,20.84z"></path>
					<path class="st10" d="M15.34,21.85l2.32,0.82C16.97,22.54,15.71,22.45,15.34,21.85z"></path>
					<path class="st10" d="M17.59,29.02c0.23,0,1.99,0.82,2.46,0.82l-2.46-0.44C17.31,29.3,17.43,29.03,17.59,29.02z"></path>
					<path class="st11" d="M28.35,34.06c-0.46,0.02-0.94-0.01-1.41,0C26.73,33.56,28.76,33.31,28.35,34.06z"></path>
					<path class="st10" d="M15.2,23.99l2.32,0.57C16.95,24.91,15.67,24.33,15.2,23.99z"></path>
					<path class="st9" d="M16.74,20.71c0.23-0.04,1.53,0.53,1.9,0.57c-0.56,0.39-1.42-0.35-2.04-0.31
						C16.46,20.9,16.71,20.72,16.74,20.71z"></path>
					<path class="st14" d="M11.89,38.34c-0.01-0.08,0-0.17,0-0.25L14,38.91L11.89,38.34z"></path>
					<path class="st10" d="M23.21,25.5c0.06-0.01,1.36,0.09,1.2,0.44l-1.48-0.06C22.68,25.72,23.18,25.5,23.21,25.5z"></path>
					<path class="st10" d="M14.7,36.71c-0.04-0.01-0.74,0.02-0.77,0c-0.37-0.15-0.68-0.42-1.05-0.57
						C13.54,35.91,14.13,36.52,14.7,36.71z"></path>
					<path class="st10" d="M22.79,36.58l1.62,0.44C24.27,37.17,22.03,36.87,22.79,36.58z"></path>
					<path class="st10" d="M21.24,29.65l1.62,0.31C22.61,30.18,21.23,30.06,21.24,29.65z"></path>
					<path class="st10" d="M28.42,30.03c0.23,0.03,0.32,0.07,0.14,0.25l-1.62,0.06C27.02,30.16,28.34,30.02,28.42,30.03z"></path>
					<path class="st9" d="M14.49,40.99l1.48,0.57C15.67,41.61,14.46,41.34,14.49,40.99z"></path>
					<path class="st10" d="M39.04,32.55c-0.53-0.12-1.09,0.42-0.98-0.25c0.36,0.01,0.5,0.02,0.84-0.13
						C39.34,32.41,38.99,32.45,39.04,32.55z"></path>
					<path class="st10" d="M23.35,43.88c0.04-0.02,0.94,0.1,0.91,0.31C23.99,44.47,22.91,44.08,23.35,43.88z"></path>
					<path class="st10" d="M19.42,24.99l0.77,0.44C19.88,25.38,18.89,25.43,19.42,24.99z"></path>
					<path class="st12" d="M13.86,42.25c-0.29-0.05-0.63,0.12-0.84-0.19C13.42,41.83,13.6,42.12,13.86,42.25z"></path>
					<path class="st10" d="M19.42,40.23c0.02,0,0.28,0.18,0.14,0.25C19.19,40.66,19.15,40.26,19.42,40.23z"></path>
					<polygon class="st12" points="14.49,38.85 14.7,38.91 14.49,39.1 14.42,39.04 					"></polygon>
				</g>
			</g>
			<path class="st15" d="M39.32,30.79c0,0.04,0,0.08,0,0.13c-2.78,0.42-5.14,1.24-8.16,1.64l-0.14-0.25
				c2.75-0.34,5.83-1.02,8.3-2.01C39.34,30.44,39.31,30.62,39.32,30.79z"></path>
		</g>
	</g>
	<g>
		<path class="st16" d="M23.95,46.67c-3.37-0.11-7.34-0.61-10.09-2.26c-0.33-0.14-0.54-0.38-0.86-0.6c-0.69-0.57-1.1-0.95-1.64-1.57
			c0.12,0.14-0.96,0.2-1.24,0.47c-0.04,0.04-0.4,0.34-0.52,0.7c-0.04,0.11-0.05,0.98,0.25,1.36c0.1,0.18,0.67,1.04,1.36,1.57
			c0,0,2.42,1.42,3.18,1.7c0.74,0.27,3.91,0.98,4.93,1.13c3,0.4,9.21,0.35,9.78,0.16l-0.15-2.8C27.29,46.67,25.63,46.73,23.95,46.67
			z"></path>
		<path class="st17" d="M36.54,45.03c-2.5,0.92-4.87,1.31-7.58,1.51c-1.67,0.12-3.33,0.18-5,0.13c-3.37-0.11-7.43-0.56-10.18-2.21
			c2.97,1.29,6.26,1.78,9.57,1.95c3.29,0.17,15.01-0.29,16.06-3.61c0.01-0.04,0-0.09,0-0.13C39.53,43.94,37.76,44.58,36.54,45.03z"></path>
		<path class="st18" d="M41.24,43.46c-0.03-0.29-0.87-1.17-1.68-1.16c-0.04,0-0.1,0.01-0.15,0c-0.01,0.12,0.01,0.25,0,0.38
			c0.13,1.26-1.64,1.9-2.86,2.36c-2.5,0.92-4.87,1.31-7.58,1.51l0.15,2.8c0.38,0,3.77-0.47,4.07-0.53l0.1-2.53l0.46,2.48
			c1.17-0.17,3.6-0.82,4.17-1.09C39.81,46.77,41.45,45.43,41.24,43.46z"></path>
		<path class="st16" d="M33.73,48.77c-0.15,0-0.41,0.06-0.55,0.05l0.1-2.53L33.73,48.77z"></path>
	</g>
	<g>
		<path class="st19" d="M8.79,6.37c-0.01,0.16-0.01,0.34,0,0.5"></path>
		<path class="st20" d="M9.25,5.12C9.18,5.24,9.1,5.35,9.09,5.37"></path>
		<path class="st16" d="M18.95,8.14c0.14,0.56-0.19,3.32,0,3.59c0.17,0.23,1.14-0.25,0.76,0.44c-0.9-0.11-1.84-0.35-2.73-0.5
			c-1.64-0.48-3.29-0.85-4.85-1.51c0.24-1.05-0.53-2.93,0.45-3.65C14.55,7.45,16.73,7.83,18.95,8.14z"></path>
		<path class="st16" d="M20.92,8.39l-0.15,3.59c0.11,0.21,3.13,0.36,3.18-0.19c0.18,0.77,1.2,0.62,1.36,0.31
			c0.2-0.38-0.05-2.87-0.15-3.46c0.1,0,0.21,0,0.3,0c-0.3,0.52,0.29,1.4,0.3,1.51c-0.57,0.29-0.39,2.02,0,2.14
			c0.32,0.1,2.4-0.06,2.88-0.13c0.32-0.05,1.04,0.13,1.21-0.19l0.08-2.96l0.15,3.02c4.49,0.2,3-1.13,3.11-3.9
			c0.05-0.01,0.1,0.01,0.15,0l0.15,3.34c0.21,0.4,1.03-0.02,1.36-0.06c0.76-0.1,2.17-0.39,2.88-0.63c0.5-0.17,1.38-0.52,1.82-0.76
			v0.25c-6.77,2.12-12.17,2.67-19.41,1.89c-0.15-0.02-0.31,0.02-0.45,0c0.38-0.69-0.59-0.21-0.76-0.44c-0.19-0.27,0.14-3.03,0-3.59
			C19.59,8.23,20.28,8.33,20.92,8.39z"></path>
		<path class="st18" d="M40.48,9.4c-0.34,0.28-0.49,0.4-0.91,0.63c-0.44,0.24-1.32,0.59-1.82,0.76c-0.98-0.72-0.21-2.6-0.45-3.65
			c1.16-0.43,2.06-0.97,3.03-1.64C40.3,6.78,40.22,8.13,40.48,9.4z"></path>
		<path class="st16" d="M30.06,1.02c0.92,0.01,6.22,0.74,7.84,1.2c0.45,0.13,1.65,0.45,2.27,0.82c0.19,0.11,0.57,0.34,0.61,0.38
			c0.41,0.41,0.48,0.55,0.76,1.07c-0.03,0.09,0.25,0.81,0.02,0.8c-0.3-0.33-0.65-1.08-0.93-0.68c-0.25-1.02-5.86-2.06-7.05-2.14
			c-2.01-0.14-10.6,0.21-12.13,0.88C18.81,4.52,21.1,5.7,22.97,6c3.34,0.53,11.97-0.88,4.55-2.9l0.15-0.25
			c4.26,0.03,9.01-0.11,12.66,1.95c-9.32,2.64-20.47,2.8-29.72-0.13c3.55-1.64,7.75-1.78,11.75-1.83
			c-1.7-1.04-10.75,0.28-11.83,1.26c-1.02,0.93,1.31,2.04,2.05,2.39c-0.98,0.72-0.21,2.6-0.45,3.65c-1.75-0.74-3.22-1.44-3.34-3.27
			c-0.01-0.16-0.01-0.34,0-0.5c0.01-0.1,0.39-1.13,0.45-1.26c0.01-0.02,0.19-0.21,0.3-0.38c0.31-0.45,0.33-0.5,0.76-0.88
			c0.13-0.11,0.66-0.57,0.76-0.63c0.51-0.33,1.36-0.68,1.97-0.88c1.9-0.63,4.12-0.91,6.14-1.13c0.51-0.06,3.2-0.34,4.21-0.33
			C24.2,0.89,29.28,1.01,30.06,1.02z"></path>
		<path class="st21" d="M24.03,1.21c2.36,0.01,4.95,0.22,7.2,0.82c0.02,0.5-3.69-0.3-4.02-0.31c-0.57-0.03-8.13,0.13-7.96-0.19
			C20.76,1.35,22.48,1.21,24.03,1.21z"></path>
		<path class="st18" d="M33.2,8.14c-0.1,2.78,1.38,4.1-3.11,3.9l-0.15-3.02l-0.08,2.96c-0.17,0.32-0.89,0.14-1.21,0.19V8.52
			C30.15,8.43,31.73,8.35,33.2,8.14z"></path>
		<path class="st16" d="M23.95,8.52c0.16,0.96-0.21,2.38,0,3.27c-0.06,0.55-3.07,0.4-3.18,0.19l0.15-3.59
			C21.92,8.49,22.95,8.48,23.95,8.52z"></path>
		<path class="st22" d="M28.65,8.52v3.65c-0.48,0.07-2.56,0.22-2.88,0.13c-0.06-0.69,0.09-1.45,0-2.14c-0.01-0.11-0.6-0.99-0.3-1.51
			C26.45,8.64,27.66,8.57,28.65,8.52z"></path>
		<path class="st18" d="M35.02,7.76l-0.15,3.65c-0.34,0.04-1.16,0.47-1.36,0.06l-0.15-3.34C33.88,8.06,34.49,7.88,35.02,7.76z"></path>
		<path class="st22" d="M25.17,8.64c0.1,0.59,0.35,3.08,0.15,3.46c-0.16,0.3-1.18,0.45-1.36-0.31c-0.21-0.89,0.16-2.31,0-3.27
			C24.32,8.53,24.78,8.64,25.17,8.64z"></path>
		<g>
			<path class="st21" d="M40.63,4.61c0.11,0.45-0.3,0.7-0.3,0.88c-0.97,0.66-1.87,1.21-3.03,1.64c-0.7,0.26-1.53,0.46-2.27,0.63
				c-0.53,0.12-1.14,0.3-1.67,0.38c-0.05,0.01-0.1-0.01-0.15,0c-1.47,0.22-3.06,0.3-4.55,0.38c-1,0.05-2.2,0.13-3.18,0.13
				c-0.1,0-0.21,0-0.3,0c-0.38,0-0.85-0.11-1.21-0.13c-1-0.04-2.04-0.03-3.03-0.13c-0.64-0.06-1.33-0.16-1.97-0.25
				c-2.22-0.31-4.4-0.69-6.37-1.64c-0.74-0.36-3.07-1.47-2.05-2.39c1.08-0.98,10.13-2.3,11.83-1.26c-4,0.05-8.2,0.19-11.75,1.83
				c9.25,2.93,20.4,2.77,29.72,0.13c-3.65-2.06-8.4-1.92-12.66-1.95L27.52,3.1c7.42,2.02-1.21,3.43-4.55,2.9
				c-1.87-0.3-4.16-1.48-1.52-2.64c1.53-0.67,10.12-1.02,12.13-0.88C34.77,2.55,40.38,3.6,40.63,4.61z"></path>
			<g>
				<path class="st16" d="M11.9,5.62c8.81,2.16,18.37,2.07,27.22,0.06c-4.54,2.63-11.02,2.87-16.45,2.58
					C19.22,8.08,14.55,7.51,11.9,5.62z"></path>
				<path class="st18" d="M25.32,3.48c-0.18,0.43,0.14,1.72,0,2.27c-1,0.02-1.54,0.11-2.58-0.13l-0.15-2.14
					C23.22,3.34,24.85,3.04,25.32,3.48z"></path>
				<path class="st23" d="M27.59,3.48v2.27c-0.79,0.14-1.52-0.01-2.27,0c0.14-0.55-0.18-1.83,0-2.27c0.03-0.07-0.06-0.19,0.08-0.25
					C26.12,3.24,26.87,3.35,27.59,3.48z"></path>
				<path class="st24" d="M27.59,5.75V3.48C30.88,4.07,30.89,5.18,27.59,5.75z"></path>
				<path class="st24" d="M22.74,5.62c-2.63-0.6-3.08-1.48-0.15-2.14L22.74,5.62z"></path>
			</g>
		</g>
		<path class="st18" d="M37.3,7.13c0.24,1.05-0.53,2.93,0.45,3.65c-0.71,0.24-2.12,0.53-2.88,0.63l0.15-3.65
			C35.77,7.59,36.59,7.39,37.3,7.13z"></path>
		<path class="st22" d="M36.76,8.39c0.13,0,0.11,1.91,0,2.14C36.64,10.53,36.64,8.39,36.76,8.39z"></path>
		<path class="st18" d="M41.39,4.74c1.31,1.49,0.5,3.51-0.91,4.66c-0.25-1.27-0.18-2.62-0.15-3.9c0-0.19,0.42-0.43,0.3-0.88
			C40.91,4.21,41.09,4.4,41.39,4.74z"></path>
		<path class="st18" d="M25.77,10.15c0.09,0.69-0.06,1.45,0,2.14C25.38,12.17,25.21,10.44,25.77,10.15z"></path>
	</g>
</g>
</svg><style>@media (prefers-color-scheme: light) { :root { filter: none; } }
@media (prefers-color-scheme: dark) { :root { filter: none; } }
</style></svg>