<?xml version="1.0" encoding="UTF-8"?><svg id="Layer_1" xmlns="http://www.w3.org/2000/svg" viewBox="0 0 512 512"><path d="M360.98,254.124h33.08c2.762,0,5-2.239,5-5s-2.238-5-5-5h-33.08c-2.762,0-5,2.239-5,5s2.238,5,5,5Z"/><path d="M394.06,264.762h-58.848c-2.762,0-5,2.238-5,5s2.238,5,5,5h58.848c2.762,0,5-2.238,5-5s-2.238-5-5-5Z"/><path d="M437.945,28.417c-1.046-2.383-3.404-3.923-6.007-3.923h-90.315c-.215-7.348-6.246-13.264-13.646-13.264-7.536,0-13.667,6.131-13.667,13.667V117.795l-131.959,.417c-2.669-.35-5.385-.549-8.147-.549-34.396,0-62.379,27.989-62.379,62.392v24.876h-31.323c-3.859,0-7,3.14-7,7v74.387c0,3.859,3.141,7,7,7h31.323v9.424c0,1.315,.394,2.539,1.062,3.567l-12.348,61.907c-1.318,4.425-.559,9.048,2.103,12.73,2.775,3.841,7.328,6.164,12.178,6.214l92.571,.955c.056,0,.11,0,.166,0,7.546,0,13.98-5.36,15.342-12.849l11.338-65.965h65.899v148.897c-18.436,2.84-32.598,18.812-32.598,38.029,0,2.762,2.238,5,5,5h110.878c2.762,0,5-2.238,5-5,0-19.218-14.161-35.19-32.597-38.029v-148.897h71.249c3.617,0,6.561-2.943,6.561-6.562v-119.99c.727-35.001-30.113-65.851-65.109-65.127-.07,0-.141,0-.211,0l-26.665,.084v-32.284h90.295c2.603,0,4.961-1.54,6.007-3.923,1.047-2.383,.584-5.162-1.178-7.078l-17.893-19.464,17.893-19.464c1.762-1.917,2.225-4.695,1.178-7.078Zm-113.635-3.521c0-2.021,1.645-3.667,3.667-3.667s3.666,1.645,3.666,3.667V188.596c-1.197-.176-2.42-.27-3.666-.27s-2.469,.094-3.667,.27V24.896Zm3.667,173.43c8.355,0,15.152,6.799,15.152,15.157s-6.797,15.157-15.152,15.157-15.152-6.799-15.152-15.157,6.797-15.157,15.152-15.157Zm-206.152-18.271c0-28.889,23.497-52.392,52.379-52.392,1.867,0,3.709,.102,5.526,.294-24.838,8.913-42.655,32.689-42.655,60.555v16.418h-15.25v-24.876Zm61.006,34.876l-43.815,42.342-47.429-42.342h91.244Zm7.317,6.835v55.275l-29.519-26.747,29.519-28.527Zm-106.646-.647l31.088,27.753-31.088,28.168v-55.921Zm7.964,62.199l30.625-27.749,13.729,12.256c.95,.849,2.141,1.271,3.33,1.271,1.254,0,2.508-.47,3.475-1.404l10.797-10.434,28.76,26.06H91.466Zm42.917,10v5.985h-12.559v-5.985h12.559Zm78.668,80.209c-.485,2.668-2.792,4.59-5.498,4.59h-.06l-92.571-.956c-3.53-.114-5.969-2.949-4.627-6.739l12.191-61.118h101.603l-11.038,64.224Zm13.531-74.224h-82.199v-5.985h48.764c3.859,0,7-3.141,7-7v-74.387c0-3.86-3.141-7-7-7h-46.072v-16.418c0-29.341,23.387-53.307,52.498-54.273,16.092,8.951,27.01,26.129,27.01,45.816v119.249Zm151.394,191.927h-99.999c2.369-13.328,14.041-23.479,28.039-23.479h43.922c13.997,0,25.669,10.15,28.038,23.479Zm-32.157-152.41v10.726h-35.684v-10.726h35.684Zm-35.684-10v-19.517h35.684v19.517h-35.684Zm35.684,30.726v98.206h-35.684v-98.206h35.684Zm22.521-231.92c29.687-.713,55.908,25.436,55.289,55.127v116.551H236.583v-119.249c0-21.637-11.073-40.73-27.844-51.925l105.572-.334v64.585c-6.905,4.489-11.485,12.269-11.485,21.102,0,13.872,11.283,25.157,25.152,25.157s25.152-11.285,25.152-25.157c0-8.834-4.58-16.614-11.486-21.103V127.709l26.696-.084Zm41.033-77.105c-2.288,2.49-2.288,6.39,0,8.88l14.73,16.025h-82.461V34.493h82.461l-14.731,16.026Z"/></svg>