<?xml version="1.0" encoding="utf-8"?>
<!-- Generator: Adobe Illustrator 29.5.1, SVG Export Plug-In . SVG Version: 9.03 Build 0)  -->
<svg version="1.1" id="Layer_1" xmlns="http://www.w3.org/2000/svg" xmlns:xlink="http://www.w3.org/1999/xlink" x="0px" y="0px"
	 viewBox="0 0 32 32" style="enable-background:new 0 0 32 32;" xml:space="preserve">
<style type="text/css">
	.st0{fill:#231F20;}
</style>
<path class="st0" d="M31.61,12.63l-1.22-5.46l-0.19-0.86c-0.31-1.37-2.29-2.06-5.9-2.06c-2.81,0-6.35,0.44-9.95,1.25
	c-7.42,1.66-14.6,4.76-13.99,7.48l1.1,4.92c0,0,0,0,0,0l0.31,1.4c0.31,1.36,2.29,2.06,5.9,2.06h0c2.81,0,6.35-0.44,9.95-1.25
	c0.26-0.06,0.52-0.12,0.77-0.18c-1.36,0.77-2.88,1.41-4.55,1.78c-0.16,0.04-0.31,0.14-0.4,0.28c-0.09,0.14-0.12,0.31-0.08,0.48
	l1.07,4.77c0.07,0.3,0.33,0.5,0.62,0.5c0.05,0,0.09,0,0.14-0.02c3.78-0.84,8.11-3.23,11.58-6.39
	C30.29,18.13,32.11,14.87,31.61,12.63z M29.86,15.46c-0.01,0.02-0.02,0.05-0.03,0.07l-0.01-0.04l-0.15-0.68l-0.15-0.69l-0.06-0.27
	c-0.05-0.23-0.28-0.37-0.51-0.32c-0.23,0.05-0.37,0.28-0.32,0.51l0.14,0.63l0.15,0.66l0.15,0.66l0.14,0.64
	c-0.21,0.33-0.45,0.66-0.71,1l-0.23-1.03c-0.01-0.05-0.03-0.09-0.05-0.13c-0.09-0.15-0.27-0.23-0.45-0.19
	c-0.23,0.05-0.37,0.28-0.32,0.51l0.02,0.07l0.36,1.6c-0.44,0.5-0.92,1.01-1.45,1.51l-0.5-2.21c-0.01-0.06-0.04-0.11-0.07-0.16
	c-0.1-0.13-0.27-0.2-0.43-0.16c-0.22,0.05-0.35,0.25-0.33,0.47c0,0.01,0,0.03,0,0.04l0.6,2.69c-0.26,0.23-0.52,0.45-0.79,0.67
	l-0.24-1.06c-0.05-0.23-0.28-0.37-0.51-0.32c-0.23,0.05-0.37,0.28-0.32,0.51l0.33,1.47c-0.44,0.34-0.88,0.66-1.34,0.97l-0.48-2.16
	c-0.05-0.23-0.28-0.37-0.51-0.32c-0.23,0.05-0.37,0.28-0.32,0.51l0.55,2.47c-0.43,0.28-0.87,0.54-1.31,0.79l-0.25-1.12
	c-0.05-0.23-0.28-0.37-0.51-0.32c-0.23,0.05-0.37,0.28-0.32,0.51l0.3,1.35c-0.44,0.23-0.89,0.45-1.33,0.65l-0.48-2.17
	c-0.05-0.23-0.28-0.37-0.51-0.32c-0.23,0.05-0.37,0.28-0.32,0.51l0.52,2.32c-0.77,0.31-1.54,0.58-2.28,0.77l-0.79-3.52
	c2.8-0.74,5.29-2.17,7.4-3.9c0.43-0.35,0.84-0.71,1.23-1.08c0,0,0,0,0,0c0.19-0.18,0.37-0.35,0.55-0.53
	c0.18-0.18,0.35-0.36,0.53-0.54c1.9-1.99,3.37-4.13,4.35-5.98c0.1-0.2,0.2-0.39,0.29-0.58c0.1-0.2,0.19-0.4,0.28-0.59
	c0.06-0.13,0.12-0.27,0.17-0.4l0.03,0.15l0.25,1.1l0.1,0.44l0.13,0.59l0.31,1.4c0.09,0.39,0.06,0.85-0.06,1.35
	C30.21,14.64,30.06,15.04,29.86,15.46z M19.01,18.47l-0.55-2.44c-0.05-0.23-0.28-0.37-0.51-0.32c-0.23,0.05-0.37,0.28-0.32,0.51
	l0.55,2.46c-0.28,0.07-0.57,0.13-0.85,0.2c-0.32,0.07-0.64,0.14-0.96,0.2l-0.34-1.54c-0.05-0.23-0.28-0.37-0.51-0.32
	c-0.23,0.05-0.37,0.28-0.32,0.51l0.34,1.52c-0.58,0.11-1.15,0.21-1.72,0.3l-0.58-2.57c-0.05-0.23-0.28-0.37-0.51-0.32
	c-0.23,0.05-0.37,0.28-0.32,0.51l0.56,2.51c-0.52,0.07-1.02,0.14-1.52,0.19l-0.34-1.51c-0.05-0.23-0.28-0.37-0.51-0.32
	c-0.23,0.05-0.37,0.28-0.32,0.51l0.32,1.41c-0.59,0.05-1.16,0.09-1.71,0.12l-0.59-2.67c-0.05-0.23-0.28-0.37-0.51-0.32
	c-0.23,0.05-0.37,0.28-0.32,0.51l0.56,2.51c-0.13,0-0.26,0.01-0.39,0.01c-0.43,0-0.82-0.01-1.18-0.03L6.11,18.4
	c-0.05-0.23-0.28-0.37-0.51-0.32c-0.23,0.05-0.37,0.28-0.32,0.51l0.31,1.41c-0.54-0.06-0.98-0.14-1.33-0.24c0-0.01,0-0.03-0.01-0.04
	l-0.61-2.74c-0.04-0.18-0.18-0.3-0.35-0.33c-0.05-0.01-0.11-0.01-0.16,0c-0.23,0.05-0.37,0.28-0.32,0.51l0.01,0.04l0.49,2.17
	c-0.19-0.12-0.28-0.24-0.3-0.34L2.7,17.64L2.46,16.6l-0.17-0.76l-0.3-1.33c0.42,0.15,0.93,0.27,1.51,0.36
	c0.32,0.05,0.65,0.09,1.02,0.12c0.38,0.03,0.79,0.05,1.22,0.06c0.17,0,0.33,0.01,0.51,0.01c2.81,0,6.35-0.44,9.95-1.25
	c3.7-0.83,7.33-2.01,9.98-3.33c0.38-0.19,0.74-0.38,1.07-0.57c0.29-0.17,0.56-0.33,0.81-0.5c-0.09,0.18-0.18,0.37-0.28,0.56
	c-0.1,0.19-0.21,0.4-0.32,0.6c-0.57,1.02-1.31,2.16-2.22,3.33c-0.43,0.56-0.99,1.22-1.65,1.91l-0.27-1.19
	c-0.05-0.23-0.28-0.37-0.51-0.32c-0.23,0.05-0.37,0.28-0.32,0.51l0.39,1.73c-0.43,0.42-0.9,0.84-1.4,1.26
	c-0.04,0.01-0.08,0.03-0.12,0.04l-0.34-1.52c-0.05-0.23-0.28-0.37-0.51-0.32c-0.23,0.05-0.37,0.28-0.32,0.51l0.35,1.57
	C20.03,18.2,19.53,18.34,19.01,18.47z M24.3,5.53c3.49,0,4.57,0.69,4.65,1.06c0.11,0.5-0.89,1.49-3.03,2.59
	c-0.17,0-0.34-0.01-0.52-0.01c-2.81,0-6.35,0.44-9.95,1.25c-3.85,0.86-7.4,2.04-9.99,3.33c-2.86-0.1-3.78-0.71-3.86-1.05l0,0v0
	c-0.22-1.01,4.05-3.95,13.03-5.96C18.14,5.96,21.57,5.53,24.3,5.53z M22.72,10.57c-1.85,0.69-4.11,1.38-6.8,1.98
	c-2.43,0.54-4.82,0.91-6.97,1.09c2.01-0.75,4.32-1.43,6.77-1.97C18.17,11.12,20.57,10.75,22.72,10.57z"/>
</svg>
