<?xml version="1.0" encoding="utf-8"?>
<!-- Generator: Adobe Illustrator 29.5.1, SVG Export Plug-In . SVG Version: 9.03 Build 0)  -->
<svg version="1.1" id="Layer_1" xmlns="http://www.w3.org/2000/svg" xmlns:xlink="http://www.w3.org/1999/xlink" x="0px" y="0px"
	 viewBox="0 0 32 32" style="enable-background:new 0 0 32 32;" xml:space="preserve">
<style type="text/css">
	.st0{fill:none;stroke:#333333;stroke-width:1.2813;stroke-linecap:round;stroke-linejoin:round;stroke-miterlimit:10;}
</style>
<g>
	<path class="st0" d="M26.11,1.59c-1.43-1.22-3.59-0.96-4.69,0.56L0.94,30.48c-0.31,0.43,0.28,0.93,0.65,0.56L26.3,6.31
		c0.63-0.63,0.94-1.45,0.94-2.27C27.24,3.14,26.86,2.23,26.11,1.59z M24.52,5c-0.34,0.39-0.93,0.44-1.32,0.11
		c-0.39-0.34-0.44-0.93-0.11-1.32c0.34-0.39,0.93-0.44,1.32-0.11C24.81,4.01,24.85,4.6,24.52,5z"/>
	<path class="st0" d="M24.52,5c-0.34,0.39-0.93,0.44-1.32,0.11c-0.39-0.34-0.44-0.93-0.11-1.32c0.34-0.39,0.93-0.44,1.32-0.11
		C24.81,4.01,24.85,4.6,24.52,5z"/>
	<path class="st0" d="M24.52,5c-0.34,0.39-0.93,0.44-1.32,0.11c-0.39-0.34-0.44-0.93-0.11-1.32c0.34-0.39,0.93-0.44,1.32-0.11
		C24.81,4.01,24.85,4.6,24.52,5z"/>
	<path class="st0" d="M0.96,1.07c2.05,1.44,4.51,2.22,6.99,2.57c2.48,0.34,5.01,0.27,7.51,0.1c1.61-0.1,3.26-0.24,4.87-0.11"/>
	<path class="st0" d="M24.74,4.95c1.07,0.38,1.97,1.21,2.52,2.21c0.63,1.13,0.85,2.46,0.81,3.75c-0.05,1.75-0.56,3.49-1.46,5
		c-1.08,1.8-2.68,3.22-3.96,4.89c-1.27,1.67-2.24,3.8-1.72,5.84c1.38,5.47,9.46,6.13,10.31-1.43"/>
</g>
</svg>
