<?xml version="1.0" encoding="utf-8"?>
<!-- Generator: Adobe Illustrator 29.5.1, SVG Export Plug-In . SVG Version: 9.03 Build 0)  -->
<svg version="1.1" id="Layer_1" xmlns="http://www.w3.org/2000/svg" xmlns:xlink="http://www.w3.org/1999/xlink" x="0px" y="0px"
	 viewBox="0 0 32 32" style="enable-background:new 0 0 32 32;" xml:space="preserve">
<style type="text/css">
	.st0{fill:none;stroke:#333333;stroke-width:1.003;stroke-linecap:round;stroke-linejoin:round;stroke-miterlimit:10;}
	.st1{fill:none;stroke:#333333;stroke-width:0.8107;stroke-linecap:round;stroke-linejoin:round;stroke-miterlimit:10;}
	.st2{fill:none;stroke:#333333;stroke-width:0.8404;stroke-linecap:round;stroke-linejoin:round;stroke-miterlimit:10;}
</style>
<path class="st0" d="M26.93,31.23H2.73c-0.6,0-1.08-0.48-1.08-1.08V25.8c0-0.6,0.48-1.08,1.08-1.08h25.28v5.44
	C28.01,30.75,27.53,31.23,26.93,31.23z"/>
<path class="st0" d="M2.32,9.08l0.57,7.17c0.05,0.59,0.54,1.04,1.13,1.04h5.31c0.63,0,1.13-0.51,1.13-1.13v-1.06
	c0-1.8,1.46-3.26,3.26-3.26h0.76c1.83,0,3.31,1.48,3.31,3.31v9.55h10.21V10.97c0-2.48-2.01-4.49-4.49-4.49H4.73
	C3.32,6.47,2.21,7.68,2.32,9.08z"/>
<path class="st0" d="M7.4,19.63H6.01c-0.49,0-0.88-0.39-0.88-0.88V17.3h3.15v1.46C8.28,19.24,7.89,19.63,7.4,19.63z"/>
<line class="st0" x1="6.71" y1="19.63" x2="6.71" y2="21.43"/>
<line class="st0" x1="5.45" y1="21.48" x2="7.96" y2="21.48"/>
<line class="st0" x1="5.45" y1="21.48" x2="7.96" y2="21.48"/>
<line class="st0" x1="7.96" y1="6.45" x2="7.96" y2="4.66"/>
<line class="st0" x1="9.22" y1="4.61" x2="6.71" y2="4.61"/>
<line class="st0" x1="20.51" y1="21.48" x2="25.04" y2="21.48"/>
<line class="st0" x1="1.76" y1="29.15" x2="28.01" y2="29.15"/>
<line class="st0" x1="6.71" y1="13.81" x2="6.71" y2="6.92"/>
<path class="st0" d="M29.42,16.27h-1.41v-5.86h1.41c0.51,0,0.93,0.42,0.93,0.93v3.99C30.36,15.85,29.94,16.27,29.42,16.27z"/>
<circle class="st1" cx="22.78" cy="10.88" r="1.93"/>
<circle class="st1" cx="22.78" cy="15.81" r="1.93"/>
<line class="st0" x1="22.26" y1="6.45" x2="22.26" y2="2.88"/>
<path class="st2" d="M19.7,2.55v3.9h-1.98v-3.9c0-0.43,0.35-0.78,0.78-0.78h0.41C19.35,1.77,19.7,2.12,19.7,2.55z"/>
<line class="st0" x1="18.72" y1="1.43" x2="18.72" y2="0.77"/>
</svg>
